# xmcd CD database file
#
# Track frame offsets:
#	150
#	12805
#	28510
#	49485
#	69353
#	90763
#	113417
#	129808
#	143179
#	156596
#	165119
#
# Disc length: 2510 seconds
#
# Revision: 0
# Processed by: cddbd v1.5.2PL0 Copyright (c) Steve Scherf et al.
# Submitted via: CDex 1.70beta2
#
DISCID=7909cc0b
DTITLE=Tangarine - Between the lines
DYEAR=2008
DGENRE=Country
TTITLE0=O-do-ri-a
TTITLE1=Come on honey (turn turn)
TTITLE2=Lessons and Sermons
TTITLE3=Picture of Maria
TTITLE4=Layin' in a Cradle
TTITLE5=Judging Lucia
TTITLE6=Color the World
TTITLE7=Sing me a song
TTITLE8=Long ride through the retreats
TTITLE9=Lightly down the road
TTITLE10=Ollie and Izzy
EXTD=YEAR: 2008
EXTT0=
EXTT1=
EXTT2=
EXTT3=
EXTT4=
EXTT5=
EXTT6=
EXTT7=
EXTT8=
EXTT9=
EXTT10=
PLAYORDER=
